Coordinates
version=1
nRows=13
nColumns=38
inDegrees=no

Units are S.I. units (second, meters, Newtons, ...)
If the header above contains a line with 'inDegrees', this indicates whether rotational values are in degrees (yes) or radians (no).

endheader
time	pelvis_tilt	pelvis_list	pelvis_rotation	pelvis_tx	pelvis_ty	pelvis_tz	hip_flexion_r	hip_adduction_r	hip_rotation_r	knee_angle_r	ankle_angle_r	subtalar_angle_r	mtp_angle_r	hip_flexion_l	hip_adduction_l	hip_rotation_l	knee_angle_l	ankle_angle_l	subtalar_angle_l	mtp_angle_l	lumbar_extension	lumbar_bending	lumbar_rotation	arm_flex_r	arm_add_r	arm_rot_r	elbow_flex_r	pro_sup_r	wrist_flex_r	wrist_dev_r	arm_flex_l	arm_add_l	arm_rot_l	elbow_flex_l	pro_sup_l	wrist_flex_l	wrist_dev_l
0	-0.0852541	0.049823	-2.93369	-0.219141	1.01887	-0.0424679	-0.117642	0.0586172	-0.564357	0.0561004	0.0359735	0	0	0.0830649	-0.264845	0.242562	0.184371	-0.0311028	0	0	-0.428232	0.182235	-0.105696	-0.143136	-0.617847	0.346205	1.81484	1.13143	0	0	0.104175	-0.428463	0.453023	1.84944	0.796626	0	0
0.00999112	-0.084895	0.0486264	-2.92754	-0.218056	1.01892	-0.0425366	-0.116828	0.0584745	-0.569612	0.055336	0.0353851	0	0	0.0867723	-0.263803	0.250554	0.18479	-0.030748	0	0	-0.429917	0.188569	-0.109212	-0.137998	-0.62393	0.360082	1.82217	1.1317	0	0	0.104488	-0.429393	0.456159	1.852	0.793648	0	0
0.0199822	-0.0845259	0.0474642	-2.92144	-0.216974	1.01896	-0.042603	-0.115986	0.0583408	-0.574844	0.0546037	0.0348066	0	0	0.0904808	-0.262794	0.258444	0.185241	-0.0302888	0	0	-0.431571	0.194907	-0.112681	-0.132875	-0.629969	0.373912	1.82949	1.13199	0	0	0.104684	-0.430118	0.459057	1.85453	0.790708	0	0
0.0299734	-0.0841573	0.0463903	-2.91548	-0.215902	1.019	-0.0426632	-0.115111	0.058244	-0.579986	0.0539226	0.0342405	0	0	0.0941634	-0.261881	0.266031	0.185775	-0.0295683	0	0	-0.43318	0.201261	-0.116029	-0.127745	-0.635981	0.38772	1.83683	1.13235	0	0	0.104698	-0.430517	0.461572	1.85701	0.787824	0	0
0.0399645	-0.0838115	0.0454614	-2.90975	-0.214848	1.01904	-0.0427124	-0.114215	0.058217	-0.584944	0.0533007	0.0336825	0	0	0.0977675	-0.261143	0.273031	0.186441	-0.0284203	0	0	-0.43474	0.207631	-0.119165	-0.122573	-0.642014	0.401559	1.84421	1.13285	0	0	0.104511	-0.430534	0.463647	1.85942	0.785013	0	0
0.0499556	-0.0835061	0.0447252	-2.90439	-0.21382	1.01907	-0.0427449	-0.113313	0.0582849	-0.589609	0.0527377	0.0331255	0	0	0.101229	-0.260658	0.279088	0.187261	-0.0267005	0	0	-0.436242	0.213983	-0.121977	-0.117343	-0.648082	0.415448	1.85162	1.13358	0	0	0.104148	-0.430162	0.465303	1.86174	0.782312	0	0
0.0599467	-0.0832421	0.0442116	-2.89953	-0.212831	1.0191	-0.0427551	-0.112411	0.0584558	-0.593853	0.052228	0.0325635	0	0	0.104484	-0.260494	0.283792	0.188228	-0.0243148	0	0	-0.437662	0.22023	-0.124336	-0.112074	-0.654127	0.429337	1.85901	1.13463	0	0	0.103672	-0.429436	0.466629	1.86394	0.779818	0	0
0.0699378	-0.0829978	0.0439308	-2.89529	-0.211889	1.01912	-0.0427372	-0.111496	0.0587182	-0.597557	0.0517643	0.0319924	0	0	0.107477	-0.260699	0.286739	0.189296	-0.0212499	0	0	-0.438951	0.226232	-0.126119	-0.106799	-0.659997	0.443138	1.8662	1.1361	0	0	0.103171	-0.428418	0.467767	1.86597	0.777598	0	0
0.079929	-0.0827736	0.0438876	-2.89177	-0.211005	1.01913	-0.0426855	-0.110581	0.0590631	-0.600619	0.0513418	0.0314091	0	0	0.110133	-0.261313	0.287585	0.190396	-0.0175863	0	0	-0.440091	0.231887	-0.127246	-0.10152	-0.665605	0.456819	1.87311	1.13804	0	0	0.102701	-0.427184	0.468824	1.8678	0.775669	0	0
0.0899201	-0.0825829	0.0440795	-2.88905	-0.210187	1.01913	-0.0425942	-0.10969	0.0594804	-0.602959	0.0509557	0.0308112	0	0	0.112371	-0.262363	0.286085	0.191444	-0.013513	0	0	-0.441082	0.237125	-0.127681	-0.0962214	-0.670901	0.470387	1.87965	1.14047	0	0	0.102301	-0.425817	0.469875	1.86941	0.774009	0	0
0.0999112	-0.0824429	0.0444966	-2.88718	-0.209442	1.01913	-0.0424571	-0.108851	0.0599582	-0.60452	0.0506022	0.0301981	0	0	0.114115	-0.26385	0.282137	0.19235	-0.00931483	0	0	-0.44193	0.241901	-0.127431	-0.0908753	-0.675862	0.483868	1.88579	1.14333	0	0	0.101989	-0.424398	0.470967	1.87079	0.772579	0	0
0.109902	-0.0823699	0.0451209	-2.88619	-0.208777	1.01911	-0.0422676	-0.108092	0.0604799	-0.605271	0.0502776	0.0295718	0	0	0.115299	-0.265749	0.275806	0.193025	-0.00533593	0	0	-0.442644	0.246187	-0.126539	-0.0854486	-0.680476	0.497294	1.8915	1.14652	0	0	0.101768	-0.423	0.472121	1.87193	0.771332	0	0
0.119893	-0.0823774	0.0459284	-2.88604	-0.208193	1.01909	-0.0420182	-0.107438	0.0610253	-0.605215	0.0499808	0.028937	0	0	0.115877	-0.268004	0.267331	0.193395	-0.00192732	0	0	-0.443229	0.249972	-0.125086	-0.0799081	-0.684738	0.510703	1.89679	1.14986	0	0	0.101635	-0.421692	0.47334	1.87284	0.770214	0	0
